<svg width="188" height="187" viewBox="0 0 188 187" xmlns="http://www.w3.org/2000/svg">
  <g fill="none" fill-rule="evenodd">
    <path d="M153.629 186.722H34.898c-18.745 0-33.995-15.251-33.995-33.995V33.995C.903 15.25 16.153-.002 34.898-.002h118.731c18.746 0 33.996 15.252 33.996 33.997v118.732c0 18.744-15.25 33.995-33.996 33.995z" fill="#000"/>
    <path d="M85.775 93.36c0 14.227-11.531 25.757-25.756 25.757s-25.756-11.53-25.756-25.757c0-14.224 11.531-25.757 25.756-25.757S85.775 79.136 85.775 93.36" fill="#8B8B8B"/>
    <path d="M154.266 93.36c0 14.227-11.532 25.757-25.757 25.757-14.226 0-25.757-11.53-25.757-25.757 0-14.224 11.531-25.757 25.757-25.757 14.225 0 25.757 11.533 25.757 25.757" fill="#E9E9E9"/>
  </g>
</svg>
