<svg width="504" height="504" viewBox="0 0 504 504" xmlns="http://www.w3.org/2000/svg">
  <g fill="#0A0A08" fill-rule="evenodd">
    <path d="M252 45.471c67.266 0 75.233.256 101.797 1.468 24.562 1.121 37.901 5.225 46.779 8.674 11.758 4.57 20.151 10.03 28.966 18.845 8.815 8.815 14.275 17.208 18.844 28.966 3.45 8.878 7.554 22.217 8.675 46.778 1.212 26.565 1.468 34.532 1.468 101.798s-.256 75.233-1.468 101.797c-1.121 24.562-5.225 37.901-8.675 46.779-4.569 11.758-10.029 20.151-18.844 28.966-8.815 8.815-17.208 14.275-28.966 18.844-8.878 3.45-22.217 7.554-46.779 8.675-26.56 1.212-34.527 1.468-101.797 1.468s-75.237-.256-101.797-1.468c-24.562-1.121-37.901-5.225-46.778-8.675-11.759-4.569-20.152-10.029-28.967-18.844-8.815-8.815-14.275-17.208-18.844-28.966-3.45-8.878-7.554-22.217-8.675-46.778-1.212-26.565-1.468-34.532-1.468-101.798s.256-75.233 1.468-101.797c1.121-24.562 5.225-37.901 8.675-46.779 4.569-11.758 10.029-20.151 18.844-28.966 8.815-8.815 17.208-14.275 28.967-18.845 8.877-3.449 22.216-7.553 46.777-8.674 26.565-1.212 34.532-1.468 101.798-1.468m0-45.392c-68.418 0-76.996.29-103.866 1.516-26.815 1.224-45.127 5.482-61.152 11.71-16.566 6.438-30.615 15.052-44.62 29.057-14.005 14.005-22.619 28.054-29.057 44.62-6.228 16.025-10.486 34.337-11.71 61.152C.369 175.003.08 183.582.08 252s.289 76.997 1.515 103.866c1.224 26.815 5.482 45.127 11.71 61.152 6.438 16.565 15.052 30.615 29.057 44.62 14.005 14.005 28.054 22.619 44.62 29.057 16.025 6.228 34.337 10.486 61.152 11.71 26.87 1.226 35.448 1.515 103.866 1.515s76.997-.289 103.866-1.515c26.815-1.224 45.127-5.482 61.152-11.71 16.566-6.438 30.615-15.052 44.62-29.057 14.005-14.005 22.619-28.054 29.057-44.62 6.228-16.025 10.486-34.337 11.71-61.152 1.226-26.869 1.516-35.448 1.516-103.866s-.29-76.997-1.516-103.866c-1.224-26.815-5.482-45.127-11.71-61.152-6.438-16.566-15.052-30.615-29.057-44.62-14.005-14.005-28.054-22.619-44.62-29.057-16.025-6.228-34.337-10.486-61.152-11.71C328.997.369 320.418.079 252 .079"/>
    <path d="M252 122.635c-71.446 0-129.365 57.919-129.365 129.365 0 71.446 57.919 129.365 129.365 129.365 71.446 0 129.365-57.919 129.365-129.365 0-71.446-57.919-129.365-129.365-129.365zm0 213.339c-46.377 0-83.974-37.597-83.974-83.974s37.597-83.974 83.974-83.974 83.974 37.597 83.974 83.974-37.597 83.974-83.974 83.974zM416.706 117.524c0 16.696-13.534 30.231-30.23 30.231-16.696 0-30.231-13.535-30.231-30.231s13.535-30.23 30.231-30.23 30.23 13.534 30.23 30.23"/>
  </g>
</svg>
